<mxfile modified="2023-05-06T13:51:21.185Z" host="app.diagrams.net" agent="Mozilla/5.0 (Windows NT 10.0; Win64; x64) AppleWebKit/537.36 (KHTML, like Gecko) Chrome/112.0.0.0 Safari/537.36 Edg/112.0.1722.58" etag="4R4GCr8t2askJJ5BIPnI" version="21.2.7" type="github">
  <diagram id="Ht1M8jgEwFfnCIfOTk4-" name="Page-1">
    <mxGraphModel dx="1502" dy="725" grid="1" gridSize="10" guides="1" tooltips="1" connect="1" arrows="1" fold="1" page="1" pageScale="1" pageWidth="1169" pageHeight="827" math="0" shadow="0">
      <root>
        <mxCell id="0" />
        <mxCell id="1" parent="0" />
        <mxCell id="4YCI477bfAeU8ZQTgAqc-33" value="" style="rounded=1;whiteSpace=wrap;html=1;" vertex="1" parent="1">
          <mxGeometry x="40" y="575" width="970" height="434" as="geometry" />
        </mxCell>
        <mxCell id="4YCI477bfAeU8ZQTgAqc-114" value="" style="rounded=1;whiteSpace=wrap;html=1;" vertex="1" parent="1">
          <mxGeometry x="351" y="860" width="279" height="125" as="geometry" />
        </mxCell>
        <mxCell id="4YCI477bfAeU8ZQTgAqc-38" value="" style="rounded=1;whiteSpace=wrap;html=1;" vertex="1" parent="1">
          <mxGeometry x="67.5" y="862.5" width="272.5" height="122.5" as="geometry" />
        </mxCell>
        <mxCell id="4YCI477bfAeU8ZQTgAqc-111" value="" style="rounded=1;whiteSpace=wrap;html=1;" vertex="1" parent="1">
          <mxGeometry x="80" y="890" width="250" height="85" as="geometry" />
        </mxCell>
        <mxCell id="4YCI477bfAeU8ZQTgAqc-100" value="" style="rounded=1;whiteSpace=wrap;html=1;" vertex="1" parent="1">
          <mxGeometry x="651" y="861" width="148" height="95" as="geometry" />
        </mxCell>
        <mxCell id="4YCI477bfAeU8ZQTgAqc-90" value="" style="rounded=1;whiteSpace=wrap;html=1;" vertex="1" parent="1">
          <mxGeometry x="189" y="604" width="301" height="131" as="geometry" />
        </mxCell>
        <mxCell id="4YCI477bfAeU8ZQTgAqc-11" value="" style="rounded=1;whiteSpace=wrap;html=1;" vertex="1" parent="1">
          <mxGeometry x="1001" y="164.5" width="320" height="135.5" as="geometry" />
        </mxCell>
        <mxCell id="4YCI477bfAeU8ZQTgAqc-14" value="Mobile User" style="text;html=1;strokeColor=none;fillColor=none;align=center;verticalAlign=middle;whiteSpace=wrap;rounded=0;" vertex="1" parent="1">
          <mxGeometry x="1231.5" y="252.5" width="69.5" height="30" as="geometry" />
        </mxCell>
        <mxCell id="4YCI477bfAeU8ZQTgAqc-12" value="" style="edgeStyle=orthogonalEdgeStyle;rounded=0;orthogonalLoop=1;jettySize=auto;html=1;" edge="1" parent="1">
          <mxGeometry relative="1" as="geometry">
            <mxPoint x="1001" y="215.29999999999995" as="sourcePoint" />
            <mxPoint x="951" y="215" as="targetPoint" />
            <Array as="points">
              <mxPoint x="971" y="215" />
              <mxPoint x="971" y="215" />
            </Array>
          </mxGeometry>
        </mxCell>
        <mxCell id="-QjtrjUzRDEMRZ5MF8oH-28" value="1" style="rounded=0;whiteSpace=wrap;html=1;fillColor=#007CBD;strokeColor=none;fontColor=#FFFFFF;fontStyle=1;fontSize=22;" parent="1" vertex="1">
          <mxGeometry x="1271" y="204.5" width="40" height="38" as="geometry" />
        </mxCell>
        <mxCell id="-QjtrjUzRDEMRZ5MF8oH-47" value="Million User System" style="text;html=1;resizable=0;points=[];autosize=1;align=left;verticalAlign=top;spacingTop=-4;fontSize=30;fontStyle=1;rounded=0;" parent="1" vertex="1">
          <mxGeometry x="56.5" y="64.5" width="310" height="40" as="geometry" />
        </mxCell>
        <mxCell id="-QjtrjUzRDEMRZ5MF8oH-48" value="Architectural Diagram" style="text;html=1;resizable=0;points=[];autosize=1;align=left;verticalAlign=top;spacingTop=-4;fontSize=16;rounded=0;" parent="1" vertex="1">
          <mxGeometry x="56.5" y="114.5" width="180" height="30" as="geometry" />
        </mxCell>
        <mxCell id="-QjtrjUzRDEMRZ5MF8oH-49" value="User" style="text;html=1;resizable=0;points=[];autosize=1;align=left;verticalAlign=top;spacingTop=-4;fontSize=16;fontStyle=1;rounded=0;" parent="1" vertex="1">
          <mxGeometry x="1011" y="170" width="60" height="30" as="geometry" />
        </mxCell>
        <mxCell id="SCVMTBWpLvtzJIhz15lM-1" value="" style="line;strokeWidth=2;html=1;fontSize=14;rounded=0;" parent="1" vertex="1">
          <mxGeometry x="52.5" y="139.5" width="1060" height="10" as="geometry" />
        </mxCell>
        <mxCell id="jZVaUwOg5UY3L9NAnvdq-55" value="" style="edgeStyle=elbowEdgeStyle;rounded=0;orthogonalLoop=1;jettySize=auto;html=1;endArrow=open;endFill=0;strokeColor=#545B64;strokeWidth=2;fontSize=14;" parent="1" target="jZVaUwOg5UY3L9NAnvdq-25" edge="1">
          <mxGeometry relative="1" as="geometry">
            <mxPoint x="808" y="773.5" as="sourcePoint" />
          </mxGeometry>
        </mxCell>
        <mxCell id="jZVaUwOg5UY3L9NAnvdq-35" value="3" style="rounded=0;whiteSpace=wrap;html=1;fillColor=#007CBD;strokeColor=none;fontColor=#FFFFFF;fontStyle=1;fontSize=22;" parent="1" vertex="1">
          <mxGeometry x="67.5" y="609" width="40" height="38" as="geometry" />
        </mxCell>
        <mxCell id="jZVaUwOg5UY3L9NAnvdq-37" value="11" style="rounded=0;whiteSpace=wrap;html=1;fillColor=#007CBD;strokeColor=none;fontColor=#FFFFFF;fontStyle=1;fontSize=22;" parent="1" vertex="1">
          <mxGeometry x="1092.5" y="818.5" width="40" height="38" as="geometry" />
        </mxCell>
        <mxCell id="4YCI477bfAeU8ZQTgAqc-9" value="" style="edgeStyle=orthogonalEdgeStyle;rounded=0;orthogonalLoop=1;jettySize=auto;html=1;" edge="1" parent="1" source="4YCI477bfAeU8ZQTgAqc-4" target="4YCI477bfAeU8ZQTgAqc-3">
          <mxGeometry relative="1" as="geometry">
            <Array as="points">
              <mxPoint x="1091" y="280" />
              <mxPoint x="1162" y="280" />
            </Array>
          </mxGeometry>
        </mxCell>
        <mxCell id="4YCI477bfAeU8ZQTgAqc-4" value="" style="sketch=0;pointerEvents=1;shadow=0;dashed=0;html=1;strokeColor=none;fillColor=#505050;labelPosition=center;verticalLabelPosition=bottom;verticalAlign=top;outlineConnect=0;align=center;shape=mxgraph.office.devices.laptop;" vertex="1" parent="1">
          <mxGeometry x="1051" y="190" width="79" height="50.5" as="geometry" />
        </mxCell>
        <mxCell id="4YCI477bfAeU8ZQTgAqc-8" value="" style="edgeStyle=orthogonalEdgeStyle;rounded=0;orthogonalLoop=1;jettySize=auto;html=1;" edge="1" parent="1" source="4YCI477bfAeU8ZQTgAqc-7" target="4YCI477bfAeU8ZQTgAqc-3">
          <mxGeometry relative="1" as="geometry">
            <Array as="points">
              <mxPoint x="1232" y="280" />
              <mxPoint x="1162" y="280" />
            </Array>
          </mxGeometry>
        </mxCell>
        <mxCell id="4YCI477bfAeU8ZQTgAqc-7" value="" style="sketch=0;outlineConnect=0;fontColor=#232F3E;gradientColor=none;fillColor=#232F3D;strokeColor=none;dashed=0;verticalLabelPosition=bottom;verticalAlign=top;align=center;html=1;fontSize=12;fontStyle=0;aspect=fixed;pointerEvents=1;shape=mxgraph.aws4.mobile_client;" vertex="1" parent="1">
          <mxGeometry x="1211" y="184.5" width="41" height="78" as="geometry" />
        </mxCell>
        <mxCell id="4YCI477bfAeU8ZQTgAqc-10" value="" style="image;sketch=0;aspect=fixed;html=1;points=[];align=center;fontSize=12;image=img/lib/mscae/DNS.svg;" vertex="1" parent="1">
          <mxGeometry x="891" y="199" width="67" height="67" as="geometry" />
        </mxCell>
        <mxCell id="4YCI477bfAeU8ZQTgAqc-15" value="IP:10.65.18.64" style="text;html=1;strokeColor=none;fillColor=none;align=center;verticalAlign=middle;whiteSpace=wrap;rounded=0;" vertex="1" parent="1">
          <mxGeometry x="946.5" y="249" width="60" height="30" as="geometry" />
        </mxCell>
        <mxCell id="4YCI477bfAeU8ZQTgAqc-16" value="Web Browser" style="text;html=1;strokeColor=none;fillColor=none;align=center;verticalAlign=middle;whiteSpace=wrap;rounded=0;" vertex="1" parent="1">
          <mxGeometry x="1026" y="243" width="60" height="30" as="geometry" />
        </mxCell>
        <mxCell id="4YCI477bfAeU8ZQTgAqc-17" value="www.mysite.com" style="text;html=1;strokeColor=none;fillColor=none;align=center;verticalAlign=middle;whiteSpace=wrap;rounded=0;" vertex="1" parent="1">
          <mxGeometry x="1037" y="274" width="120" height="30" as="geometry" />
        </mxCell>
        <mxCell id="4YCI477bfAeU8ZQTgAqc-19" value="api.mysite.com" style="text;html=1;strokeColor=none;fillColor=none;align=center;verticalAlign=middle;whiteSpace=wrap;rounded=0;" vertex="1" parent="1">
          <mxGeometry x="1194" y="274" width="60" height="30" as="geometry" />
        </mxCell>
        <mxCell id="4YCI477bfAeU8ZQTgAqc-27" value="" style="edgeStyle=none;orthogonalLoop=1;jettySize=auto;html=1;rounded=0;entryX=-0.006;entryY=0.57;entryDx=0;entryDy=0;entryPerimeter=0;" edge="1" parent="1">
          <mxGeometry width="100" relative="1" as="geometry">
            <mxPoint x="955" y="242" as="sourcePoint" />
            <mxPoint x="1003.0799999999999" y="241.735" as="targetPoint" />
            <Array as="points" />
          </mxGeometry>
        </mxCell>
        <mxCell id="4YCI477bfAeU8ZQTgAqc-28" value="www.mysite.com" style="text;html=1;strokeColor=none;fillColor=none;align=center;verticalAlign=middle;whiteSpace=wrap;rounded=0;" vertex="1" parent="1">
          <mxGeometry x="931" y="191" width="120" height="30" as="geometry" />
        </mxCell>
        <mxCell id="4YCI477bfAeU8ZQTgAqc-31" value="" style="sketch=0;aspect=fixed;pointerEvents=1;shadow=0;dashed=0;html=1;strokeColor=none;labelPosition=center;verticalLabelPosition=bottom;verticalAlign=top;align=center;fillColor=#00188D;shape=mxgraph.mscae.enterprise.application_server" vertex="1" parent="1">
          <mxGeometry x="210" y="613.97" width="77" height="89.53" as="geometry" />
        </mxCell>
        <mxCell id="4YCI477bfAeU8ZQTgAqc-3" value="" style="verticalLabelPosition=bottom;html=1;verticalAlign=top;align=center;strokeColor=none;fillColor=#00BEF2;shape=mxgraph.azure.azure_load_balancer;" vertex="1" parent="1">
          <mxGeometry x="1130" y="339.5" width="63" height="52" as="geometry" />
        </mxCell>
        <mxCell id="4YCI477bfAeU8ZQTgAqc-37" value="Data Center #1" style="text;html=1;resizable=0;points=[];autosize=1;align=left;verticalAlign=top;spacingTop=-4;fontSize=16;fontStyle=1;rounded=0;" vertex="1" parent="1">
          <mxGeometry x="85" y="579" width="140" height="30" as="geometry" />
        </mxCell>
        <mxCell id="4YCI477bfAeU8ZQTgAqc-40" value="" style="image;aspect=fixed;perimeter=ellipsePerimeter;html=1;align=center;shadow=0;dashed=0;spacingTop=3;image=img/lib/active_directory/databases.svg;" vertex="1" parent="1">
          <mxGeometry x="181" y="893.5" width="50" height="49" as="geometry" />
        </mxCell>
        <mxCell id="4YCI477bfAeU8ZQTgAqc-41" value="" style="image;aspect=fixed;perimeter=ellipsePerimeter;html=1;align=center;shadow=0;dashed=0;spacingTop=3;image=img/lib/active_directory/databases.svg;" vertex="1" parent="1">
          <mxGeometry x="265" y="895.5" width="50" height="49" as="geometry" />
        </mxCell>
        <mxCell id="4YCI477bfAeU8ZQTgAqc-43" value="" style="image;aspect=fixed;perimeter=ellipsePerimeter;html=1;align=center;shadow=0;dashed=0;spacingTop=3;image=img/lib/active_directory/databases.svg;" vertex="1" parent="1">
          <mxGeometry x="93" y="894.5" width="50" height="49" as="geometry" />
        </mxCell>
        <mxCell id="4YCI477bfAeU8ZQTgAqc-44" value="Master DB" style="text;html=1;strokeColor=none;fillColor=none;align=center;verticalAlign=middle;whiteSpace=wrap;rounded=0;" vertex="1" parent="1">
          <mxGeometry x="171" y="940" width="69" height="26" as="geometry" />
        </mxCell>
        <mxCell id="4YCI477bfAeU8ZQTgAqc-45" value="Slave DB" style="text;html=1;strokeColor=none;fillColor=none;align=center;verticalAlign=middle;whiteSpace=wrap;rounded=0;" vertex="1" parent="1">
          <mxGeometry x="84" y="940" width="69" height="26" as="geometry" />
        </mxCell>
        <mxCell id="4YCI477bfAeU8ZQTgAqc-46" value="Slave DB" style="text;html=1;strokeColor=none;fillColor=none;align=center;verticalAlign=middle;whiteSpace=wrap;rounded=0;" vertex="1" parent="1">
          <mxGeometry x="257" y="941" width="69" height="26" as="geometry" />
        </mxCell>
        <mxCell id="4YCI477bfAeU8ZQTgAqc-47" value="Replicate" style="html=1;verticalAlign=bottom;startArrow=block;startFill=1;endArrow=block;startSize=8;edgeStyle=elbowEdgeStyle;elbow=vertical;curved=0;rounded=0;" edge="1" parent="1">
          <mxGeometry width="60" relative="1" as="geometry">
            <mxPoint x="138" y="922" as="sourcePoint" />
            <mxPoint x="191" y="922" as="targetPoint" />
          </mxGeometry>
        </mxCell>
        <mxCell id="4YCI477bfAeU8ZQTgAqc-49" value="Replicate" style="html=1;verticalAlign=bottom;startArrow=block;startFill=1;endArrow=block;startSize=8;edgeStyle=elbowEdgeStyle;elbow=vertical;curved=0;rounded=0;" edge="1" parent="1">
          <mxGeometry width="60" relative="1" as="geometry">
            <mxPoint x="221" y="921" as="sourcePoint" />
            <mxPoint x="274" y="921" as="targetPoint" />
          </mxGeometry>
        </mxCell>
        <mxCell id="4YCI477bfAeU8ZQTgAqc-56" value="" style="sketch=0;aspect=fixed;pointerEvents=1;shadow=0;dashed=0;html=1;strokeColor=none;labelPosition=center;verticalLabelPosition=bottom;verticalAlign=top;align=center;fillColor=#00188D;shape=mxgraph.mscae.enterprise.application_server" vertex="1" parent="1">
          <mxGeometry x="300" y="613.97" width="77" height="89.53" as="geometry" />
        </mxCell>
        <mxCell id="4YCI477bfAeU8ZQTgAqc-57" value="" style="sketch=0;aspect=fixed;pointerEvents=1;shadow=0;dashed=0;html=1;strokeColor=none;labelPosition=center;verticalLabelPosition=bottom;verticalAlign=top;align=center;fillColor=#00188D;shape=mxgraph.mscae.enterprise.application_server" vertex="1" parent="1">
          <mxGeometry x="390" y="612.97" width="77" height="89.53" as="geometry" />
        </mxCell>
        <mxCell id="4YCI477bfAeU8ZQTgAqc-62" value="" style="rounded=1;whiteSpace=wrap;html=1;" vertex="1" parent="1">
          <mxGeometry x="370.5" y="885" width="232.5" height="84" as="geometry" />
        </mxCell>
        <mxCell id="4YCI477bfAeU8ZQTgAqc-63" value="Master DB" style="text;html=1;strokeColor=none;fillColor=none;align=center;verticalAlign=middle;whiteSpace=wrap;rounded=0;" vertex="1" parent="1">
          <mxGeometry x="453" y="945" width="69" height="26" as="geometry" />
        </mxCell>
        <mxCell id="4YCI477bfAeU8ZQTgAqc-64" value="Slave DB" style="text;html=1;strokeColor=none;fillColor=none;align=center;verticalAlign=middle;whiteSpace=wrap;rounded=0;" vertex="1" parent="1">
          <mxGeometry x="366" y="945" width="69" height="26" as="geometry" />
        </mxCell>
        <mxCell id="4YCI477bfAeU8ZQTgAqc-65" value="Slave DB" style="text;html=1;strokeColor=none;fillColor=none;align=center;verticalAlign=middle;whiteSpace=wrap;rounded=0;" vertex="1" parent="1">
          <mxGeometry x="539" y="946" width="69" height="26" as="geometry" />
        </mxCell>
        <mxCell id="4YCI477bfAeU8ZQTgAqc-72" value="" style="image;aspect=fixed;perimeter=ellipsePerimeter;html=1;align=center;shadow=0;dashed=0;spacingTop=3;image=img/lib/active_directory/databases.svg;" vertex="1" parent="1">
          <mxGeometry x="461" y="896.5" width="50" height="49" as="geometry" />
        </mxCell>
        <mxCell id="4YCI477bfAeU8ZQTgAqc-73" value="" style="image;aspect=fixed;perimeter=ellipsePerimeter;html=1;align=center;shadow=0;dashed=0;spacingTop=3;image=img/lib/active_directory/databases.svg;" vertex="1" parent="1">
          <mxGeometry x="545" y="898.5" width="50" height="49" as="geometry" />
        </mxCell>
        <mxCell id="4YCI477bfAeU8ZQTgAqc-74" value="" style="image;aspect=fixed;perimeter=ellipsePerimeter;html=1;align=center;shadow=0;dashed=0;spacingTop=3;image=img/lib/active_directory/databases.svg;" vertex="1" parent="1">
          <mxGeometry x="373" y="897.5" width="50" height="49" as="geometry" />
        </mxCell>
        <mxCell id="4YCI477bfAeU8ZQTgAqc-78" value="Replicate" style="html=1;verticalAlign=bottom;startArrow=block;startFill=1;endArrow=block;startSize=8;edgeStyle=elbowEdgeStyle;elbow=vertical;curved=0;rounded=0;" edge="1" parent="1">
          <mxGeometry width="60" relative="1" as="geometry">
            <mxPoint x="417" y="924" as="sourcePoint" />
            <mxPoint x="470" y="924" as="targetPoint" />
          </mxGeometry>
        </mxCell>
        <mxCell id="4YCI477bfAeU8ZQTgAqc-79" value="Replicate" style="html=1;verticalAlign=bottom;startArrow=block;startFill=1;endArrow=block;startSize=8;edgeStyle=elbowEdgeStyle;elbow=vertical;curved=0;rounded=0;" edge="1" parent="1">
          <mxGeometry width="60" relative="1" as="geometry">
            <mxPoint x="500" y="923" as="sourcePoint" />
            <mxPoint x="553" y="923" as="targetPoint" />
          </mxGeometry>
        </mxCell>
        <mxCell id="4YCI477bfAeU8ZQTgAqc-80" value="user id % 2" style="rhombus;whiteSpace=wrap;html=1;" vertex="1" parent="1">
          <mxGeometry x="297" y="752" width="80" height="80" as="geometry" />
        </mxCell>
        <mxCell id="4YCI477bfAeU8ZQTgAqc-84" value="" style="edgeStyle=segmentEdgeStyle;endArrow=classic;html=1;curved=0;rounded=0;endSize=8;startSize=8;exitX=0;exitY=0.5;exitDx=0;exitDy=0;entryX=0.5;entryY=0;entryDx=0;entryDy=0;" edge="1" parent="1" source="4YCI477bfAeU8ZQTgAqc-80" target="4YCI477bfAeU8ZQTgAqc-38">
          <mxGeometry width="50" height="50" relative="1" as="geometry">
            <mxPoint x="279" y="807" as="sourcePoint" />
            <mxPoint x="279" y="622" as="targetPoint" />
          </mxGeometry>
        </mxCell>
        <mxCell id="4YCI477bfAeU8ZQTgAqc-86" value="" style="edgeStyle=elbowEdgeStyle;elbow=vertical;endArrow=classic;html=1;curved=0;rounded=0;endSize=8;startSize=8;exitX=1;exitY=0.5;exitDx=0;exitDy=0;entryX=0.53;entryY=0.006;entryDx=0;entryDy=0;entryPerimeter=0;" edge="1" parent="1" source="4YCI477bfAeU8ZQTgAqc-80" target="4YCI477bfAeU8ZQTgAqc-114">
          <mxGeometry width="50" height="50" relative="1" as="geometry">
            <mxPoint x="397" y="813" as="sourcePoint" />
            <mxPoint x="490" y="855" as="targetPoint" />
            <Array as="points">
              <mxPoint x="430" y="793" />
            </Array>
          </mxGeometry>
        </mxCell>
        <mxCell id="4YCI477bfAeU8ZQTgAqc-91" value="" style="endArrow=classic;html=1;rounded=0;exitX=0.5;exitY=1;exitDx=0;exitDy=0;" edge="1" parent="1" source="4YCI477bfAeU8ZQTgAqc-90" target="4YCI477bfAeU8ZQTgAqc-80">
          <mxGeometry width="50" height="50" relative="1" as="geometry">
            <mxPoint x="270" y="825" as="sourcePoint" />
            <mxPoint x="320" y="775" as="targetPoint" />
          </mxGeometry>
        </mxCell>
        <mxCell id="4YCI477bfAeU8ZQTgAqc-92" value="&lt;b&gt;Shard#1&lt;/b&gt;" style="text;html=1;strokeColor=none;fillColor=none;align=center;verticalAlign=middle;whiteSpace=wrap;rounded=0;" vertex="1" parent="1">
          <mxGeometry x="68" y="862" width="60" height="30" as="geometry" />
        </mxCell>
        <mxCell id="4YCI477bfAeU8ZQTgAqc-93" value="&lt;b&gt;Shard#2&lt;/b&gt;" style="text;html=1;strokeColor=none;fillColor=none;align=center;verticalAlign=middle;whiteSpace=wrap;rounded=0;" vertex="1" parent="1">
          <mxGeometry x="351" y="855" width="60" height="30" as="geometry" />
        </mxCell>
        <mxCell id="4YCI477bfAeU8ZQTgAqc-94" value="4" style="rounded=0;whiteSpace=wrap;html=1;fillColor=#007CBD;strokeColor=none;fontColor=#FFFFFF;fontStyle=1;fontSize=22;" vertex="1" parent="1">
          <mxGeometry x="441.5" y="611" width="40" height="38" as="geometry" />
        </mxCell>
        <mxCell id="4YCI477bfAeU8ZQTgAqc-95" value="5" style="rounded=0;whiteSpace=wrap;html=1;fillColor=#007CBD;strokeColor=none;fontColor=#FFFFFF;fontStyle=1;fontSize=22;" vertex="1" parent="1">
          <mxGeometry x="381.5" y="752" width="40" height="38" as="geometry" />
        </mxCell>
        <mxCell id="4YCI477bfAeU8ZQTgAqc-96" value="2" style="rounded=0;whiteSpace=wrap;html=1;fillColor=#007CBD;strokeColor=none;fontColor=#FFFFFF;fontStyle=1;fontSize=22;" vertex="1" parent="1">
          <mxGeometry x="1198.5" y="343" width="40" height="38" as="geometry" />
        </mxCell>
        <mxCell id="4YCI477bfAeU8ZQTgAqc-97" value="" style="outlineConnect=0;dashed=0;verticalLabelPosition=bottom;verticalAlign=top;align=center;html=1;shape=mxgraph.aws3.cache_node;fillColor=#2E73B8;gradientColor=none;" vertex="1" parent="1">
          <mxGeometry x="662" y="866" width="44" height="50" as="geometry" />
        </mxCell>
        <mxCell id="4YCI477bfAeU8ZQTgAqc-98" value="" style="outlineConnect=0;dashed=0;verticalLabelPosition=bottom;verticalAlign=top;align=center;html=1;shape=mxgraph.aws3.cache_node;fillColor=#2E73B8;gradientColor=none;" vertex="1" parent="1">
          <mxGeometry x="694" y="883" width="44" height="50" as="geometry" />
        </mxCell>
        <mxCell id="4YCI477bfAeU8ZQTgAqc-99" value="" style="outlineConnect=0;dashed=0;verticalLabelPosition=bottom;verticalAlign=top;align=center;html=1;shape=mxgraph.aws3.cache_node;fillColor=#2E73B8;gradientColor=none;" vertex="1" parent="1">
          <mxGeometry x="720" y="904" width="44" height="50" as="geometry" />
        </mxCell>
        <mxCell id="4YCI477bfAeU8ZQTgAqc-101" value="6" style="rounded=0;whiteSpace=wrap;html=1;fillColor=#007CBD;strokeColor=none;fontColor=#FFFFFF;fontStyle=1;fontSize=22;" vertex="1" parent="1">
          <mxGeometry x="210.5" y="846" width="40" height="38" as="geometry" />
        </mxCell>
        <mxCell id="4YCI477bfAeU8ZQTgAqc-102" value="7" style="rounded=0;whiteSpace=wrap;html=1;fillColor=#007CBD;strokeColor=none;fontColor=#FFFFFF;fontStyle=1;fontSize=22;" vertex="1" parent="1">
          <mxGeometry x="749.5" y="865" width="40" height="38" as="geometry" />
        </mxCell>
        <mxCell id="4YCI477bfAeU8ZQTgAqc-103" value="" style="edgeStyle=elbowEdgeStyle;elbow=vertical;endArrow=classic;html=1;curved=0;rounded=0;endSize=8;startSize=8;entryX=0.5;entryY=0;entryDx=0;entryDy=0;exitX=1;exitY=0.75;exitDx=0;exitDy=0;" edge="1" parent="1" source="4YCI477bfAeU8ZQTgAqc-90" target="4YCI477bfAeU8ZQTgAqc-100">
          <mxGeometry width="50" height="50" relative="1" as="geometry">
            <mxPoint x="490" y="659" as="sourcePoint" />
            <mxPoint x="588" y="729" as="targetPoint" />
            <Array as="points">
              <mxPoint x="610" y="702" />
            </Array>
          </mxGeometry>
        </mxCell>
        <mxCell id="4YCI477bfAeU8ZQTgAqc-104" value="Web/Application Server" style="text;html=1;strokeColor=none;fillColor=none;align=center;verticalAlign=middle;whiteSpace=wrap;rounded=0;" vertex="1" parent="1">
          <mxGeometry x="275" y="706" width="130" height="30" as="geometry" />
        </mxCell>
        <mxCell id="4YCI477bfAeU8ZQTgAqc-116" value="" style="rounded=1;whiteSpace=wrap;html=1;" vertex="1" parent="1">
          <mxGeometry x="824" y="856" width="120" height="110" as="geometry" />
        </mxCell>
        <mxCell id="4YCI477bfAeU8ZQTgAqc-117" value="" style="sketch=0;aspect=fixed;pointerEvents=1;shadow=0;dashed=0;html=1;strokeColor=none;labelPosition=center;verticalLabelPosition=bottom;verticalAlign=top;align=center;fillColor=#00188D;shape=mxgraph.mscae.enterprise.application_server" vertex="1" parent="1">
          <mxGeometry x="855" y="858.97" width="77" height="89.53" as="geometry" />
        </mxCell>
        <mxCell id="4YCI477bfAeU8ZQTgAqc-118" value="Workers" style="text;html=1;strokeColor=none;fillColor=none;align=center;verticalAlign=middle;whiteSpace=wrap;rounded=0;" vertex="1" parent="1">
          <mxGeometry x="840" y="940.5" width="130" height="30" as="geometry" />
        </mxCell>
        <mxCell id="4YCI477bfAeU8ZQTgAqc-119" value="" style="sketch=0;aspect=fixed;pointerEvents=1;shadow=0;dashed=0;html=1;strokeColor=none;labelPosition=center;verticalLabelPosition=bottom;verticalAlign=top;align=center;fillColor=#00188D;shape=mxgraph.azure.queue_generic" vertex="1" parent="1">
          <mxGeometry x="644" y="618" width="126.67" height="38" as="geometry" />
        </mxCell>
        <mxCell id="4YCI477bfAeU8ZQTgAqc-122" value="" style="edgeStyle=segmentEdgeStyle;endArrow=classic;html=1;curved=0;rounded=0;endSize=8;startSize=8;exitX=1;exitY=0.51;exitDx=0;exitDy=0;exitPerimeter=0;entryX=0.445;entryY=-0.015;entryDx=0;entryDy=0;entryPerimeter=0;" edge="1" parent="1" source="4YCI477bfAeU8ZQTgAqc-119" target="4YCI477bfAeU8ZQTgAqc-116">
          <mxGeometry width="50" height="50" relative="1" as="geometry">
            <mxPoint x="830" y="788" as="sourcePoint" />
            <mxPoint x="894" y="855" as="targetPoint" />
          </mxGeometry>
        </mxCell>
        <mxCell id="4YCI477bfAeU8ZQTgAqc-123" value="" style="endArrow=classic;html=1;rounded=0;entryX=0;entryY=0.5;entryDx=0;entryDy=0;entryPerimeter=0;exitX=1;exitY=0.25;exitDx=0;exitDy=0;" edge="1" parent="1">
          <mxGeometry relative="1" as="geometry">
            <mxPoint x="490" y="636.75" as="sourcePoint" />
            <mxPoint x="644" y="637" as="targetPoint" />
          </mxGeometry>
        </mxCell>
        <mxCell id="4YCI477bfAeU8ZQTgAqc-124" value="Publish" style="edgeLabel;resizable=0;html=1;align=center;verticalAlign=middle;" connectable="0" vertex="1" parent="4YCI477bfAeU8ZQTgAqc-123">
          <mxGeometry relative="1" as="geometry" />
        </mxCell>
        <mxCell id="4YCI477bfAeU8ZQTgAqc-127" value="Task Request" style="text;html=1;strokeColor=none;fillColor=none;align=center;verticalAlign=middle;whiteSpace=wrap;rounded=0;" vertex="1" parent="1">
          <mxGeometry x="877" y="750" width="60" height="30" as="geometry" />
        </mxCell>
        <mxCell id="4YCI477bfAeU8ZQTgAqc-128" value="" style="rounded=1;whiteSpace=wrap;html=1;" vertex="1" parent="1">
          <mxGeometry x="374" y="1045" width="320" height="150" as="geometry" />
        </mxCell>
        <mxCell id="4YCI477bfAeU8ZQTgAqc-129" value="" style="rounded=1;whiteSpace=wrap;html=1;" vertex="1" parent="1">
          <mxGeometry x="422" y="1055" width="120" height="60" as="geometry" />
        </mxCell>
        <mxCell id="4YCI477bfAeU8ZQTgAqc-130" value="" style="rounded=1;whiteSpace=wrap;html=1;" vertex="1" parent="1">
          <mxGeometry x="559" y="1055" width="120" height="60" as="geometry" />
        </mxCell>
        <mxCell id="4YCI477bfAeU8ZQTgAqc-131" value="" style="rounded=1;whiteSpace=wrap;html=1;" vertex="1" parent="1">
          <mxGeometry x="424" y="1129.5" width="120" height="60" as="geometry" />
        </mxCell>
        <mxCell id="4YCI477bfAeU8ZQTgAqc-132" value="" style="rounded=1;whiteSpace=wrap;html=1;" vertex="1" parent="1">
          <mxGeometry x="563" y="1129.5" width="120" height="60" as="geometry" />
        </mxCell>
        <mxCell id="4YCI477bfAeU8ZQTgAqc-134" value="Logging" style="text;html=1;strokeColor=none;fillColor=none;align=center;verticalAlign=middle;whiteSpace=wrap;rounded=0;" vertex="1" parent="1">
          <mxGeometry x="444" y="1065" width="60" height="30" as="geometry" />
        </mxCell>
        <mxCell id="4YCI477bfAeU8ZQTgAqc-135" value="Metrics" style="text;html=1;strokeColor=none;fillColor=none;align=center;verticalAlign=middle;whiteSpace=wrap;rounded=0;" vertex="1" parent="1">
          <mxGeometry x="593" y="1070" width="60" height="30" as="geometry" />
        </mxCell>
        <mxCell id="4YCI477bfAeU8ZQTgAqc-136" value="Monitoring" style="text;html=1;strokeColor=none;fillColor=none;align=center;verticalAlign=middle;whiteSpace=wrap;rounded=0;" vertex="1" parent="1">
          <mxGeometry x="450" y="1145" width="60" height="30" as="geometry" />
        </mxCell>
        <mxCell id="4YCI477bfAeU8ZQTgAqc-137" value="Automation" style="text;html=1;strokeColor=none;fillColor=none;align=center;verticalAlign=middle;whiteSpace=wrap;rounded=0;" vertex="1" parent="1">
          <mxGeometry x="590" y="1145" width="60" height="30" as="geometry" />
        </mxCell>
        <mxCell id="4YCI477bfAeU8ZQTgAqc-139" value="" style="rounded=1;whiteSpace=wrap;html=1;" vertex="1" parent="1">
          <mxGeometry x="422" y="1055" width="120" height="60" as="geometry" />
        </mxCell>
        <mxCell id="4YCI477bfAeU8ZQTgAqc-140" value="" style="rounded=1;whiteSpace=wrap;html=1;" vertex="1" parent="1">
          <mxGeometry x="559" y="1055" width="120" height="60" as="geometry" />
        </mxCell>
        <mxCell id="4YCI477bfAeU8ZQTgAqc-141" value="Logging" style="text;html=1;strokeColor=none;fillColor=none;align=center;verticalAlign=middle;whiteSpace=wrap;rounded=0;" vertex="1" parent="1">
          <mxGeometry x="444" y="1065" width="60" height="30" as="geometry" />
        </mxCell>
        <mxCell id="4YCI477bfAeU8ZQTgAqc-142" value="Metrics" style="text;html=1;strokeColor=none;fillColor=none;align=center;verticalAlign=middle;whiteSpace=wrap;rounded=0;" vertex="1" parent="1">
          <mxGeometry x="593" y="1070" width="60" height="30" as="geometry" />
        </mxCell>
        <mxCell id="4YCI477bfAeU8ZQTgAqc-143" value="Monitoring" style="text;html=1;strokeColor=none;fillColor=none;align=center;verticalAlign=middle;whiteSpace=wrap;rounded=0;" vertex="1" parent="1">
          <mxGeometry x="450" y="1145" width="60" height="30" as="geometry" />
        </mxCell>
        <mxCell id="4YCI477bfAeU8ZQTgAqc-144" value="Automation" style="text;html=1;strokeColor=none;fillColor=none;align=center;verticalAlign=middle;whiteSpace=wrap;rounded=0;" vertex="1" parent="1">
          <mxGeometry x="590" y="1145" width="60" height="30" as="geometry" />
        </mxCell>
        <mxCell id="4YCI477bfAeU8ZQTgAqc-145" value="&lt;b&gt;Tools&lt;/b&gt;" style="text;html=1;strokeColor=none;fillColor=none;align=center;verticalAlign=middle;whiteSpace=wrap;rounded=0;" vertex="1" parent="1">
          <mxGeometry x="363" y="1054" width="60" height="30" as="geometry" />
        </mxCell>
        <mxCell id="4YCI477bfAeU8ZQTgAqc-148" value="" style="endArrow=classic;html=1;rounded=0;exitX=0.5;exitY=0;exitDx=0;exitDy=0;entryX=0.509;entryY=1;entryDx=0;entryDy=0;entryPerimeter=0;" edge="1" parent="1" source="4YCI477bfAeU8ZQTgAqc-128" target="4YCI477bfAeU8ZQTgAqc-33">
          <mxGeometry width="50" height="50" relative="1" as="geometry">
            <mxPoint x="410" y="985" as="sourcePoint" />
            <mxPoint x="460" y="935" as="targetPoint" />
          </mxGeometry>
        </mxCell>
        <mxCell id="4YCI477bfAeU8ZQTgAqc-149" value="9" style="rounded=0;whiteSpace=wrap;html=1;fillColor=#007CBD;strokeColor=none;fontColor=#FFFFFF;fontStyle=1;fontSize=22;" vertex="1" parent="1">
          <mxGeometry x="901.5" y="865" width="40" height="38" as="geometry" />
        </mxCell>
        <mxCell id="4YCI477bfAeU8ZQTgAqc-150" value="10" style="rounded=0;whiteSpace=wrap;html=1;fillColor=#007CBD;strokeColor=none;fontColor=#FFFFFF;fontStyle=1;fontSize=22;" vertex="1" parent="1">
          <mxGeometry x="378.5" y="1093" width="40" height="38" as="geometry" />
        </mxCell>
        <mxCell id="4YCI477bfAeU8ZQTgAqc-151" value="8" style="rounded=0;whiteSpace=wrap;html=1;fillColor=#007CBD;strokeColor=none;fontColor=#FFFFFF;fontStyle=1;fontSize=22;" vertex="1" parent="1">
          <mxGeometry x="774.5" y="597" width="40" height="38" as="geometry" />
        </mxCell>
        <mxCell id="4YCI477bfAeU8ZQTgAqc-152" value="" style="rounded=0;whiteSpace=wrap;html=1;fillColor=#EAEDED;fontSize=22;fontColor=#FFFFFF;strokeColor=none;labelBackgroundColor=none;" vertex="1" parent="1">
          <mxGeometry x="908" y="1123" width="539" height="1350" as="geometry" />
        </mxCell>
        <mxCell id="4YCI477bfAeU8ZQTgAqc-153" value="1" style="rounded=0;whiteSpace=wrap;html=1;fillColor=#007CBD;strokeColor=none;fontColor=#FFFFFF;fontStyle=1;fontSize=22;labelBackgroundColor=none;" vertex="1" parent="1">
          <mxGeometry x="926.5" y="1135.5" width="40" height="38" as="geometry" />
        </mxCell>
        <mxCell id="4YCI477bfAeU8ZQTgAqc-154" value="2" style="rounded=0;whiteSpace=wrap;html=1;fillColor=#007CBD;strokeColor=none;fontColor=#FFFFFF;fontStyle=1;fontSize=22;labelBackgroundColor=none;" vertex="1" parent="1">
          <mxGeometry x="925" y="1257.5" width="40" height="38" as="geometry" />
        </mxCell>
        <mxCell id="4YCI477bfAeU8ZQTgAqc-155" value="3" style="rounded=0;whiteSpace=wrap;html=1;fillColor=#007CBD;strokeColor=none;fontColor=#FFFFFF;fontStyle=1;fontSize=22;labelBackgroundColor=none;" vertex="1" parent="1">
          <mxGeometry x="925" y="1377.5" width="40" height="38" as="geometry" />
        </mxCell>
        <mxCell id="4YCI477bfAeU8ZQTgAqc-156" value="4" style="rounded=0;whiteSpace=wrap;html=1;fillColor=#007CBD;strokeColor=none;fontColor=#FFFFFF;fontStyle=1;fontSize=22;labelBackgroundColor=none;" vertex="1" parent="1">
          <mxGeometry x="925" y="1491.5" width="40" height="38" as="geometry" />
        </mxCell>
        <mxCell id="4YCI477bfAeU8ZQTgAqc-157" value="5" style="rounded=0;whiteSpace=wrap;html=1;fillColor=#007CBD;strokeColor=none;fontColor=#FFFFFF;fontStyle=1;fontSize=22;labelBackgroundColor=none;" vertex="1" parent="1">
          <mxGeometry x="926.5" y="1608.5" width="40" height="38" as="geometry" />
        </mxCell>
        <mxCell id="4YCI477bfAeU8ZQTgAqc-158" value="6" style="rounded=0;whiteSpace=wrap;html=1;fillColor=#007CBD;strokeColor=none;fontColor=#FFFFFF;fontStyle=1;fontSize=22;labelBackgroundColor=none;" vertex="1" parent="1">
          <mxGeometry x="927.5" y="1723.5" width="40" height="38" as="geometry" />
        </mxCell>
        <mxCell id="4YCI477bfAeU8ZQTgAqc-159" value="7" style="rounded=0;whiteSpace=wrap;html=1;fillColor=#007CBD;strokeColor=none;fontColor=#FFFFFF;fontStyle=1;fontSize=22;labelBackgroundColor=none;" vertex="1" parent="1">
          <mxGeometry x="927" y="1839.5" width="40" height="38" as="geometry" />
        </mxCell>
        <mxCell id="4YCI477bfAeU8ZQTgAqc-160" value="8" style="rounded=0;whiteSpace=wrap;html=1;fillColor=#007CBD;strokeColor=none;fontColor=#FFFFFF;fontStyle=1;fontSize=22;labelBackgroundColor=none;" vertex="1" parent="1">
          <mxGeometry x="927.5" y="1957.5" width="40" height="38" as="geometry" />
        </mxCell>
        <mxCell id="4YCI477bfAeU8ZQTgAqc-161" value="9" style="rounded=0;whiteSpace=wrap;html=1;fillColor=#007CBD;strokeColor=none;fontColor=#FFFFFF;fontStyle=1;fontSize=22;labelBackgroundColor=none;" vertex="1" parent="1">
          <mxGeometry x="925.5" y="2077.5" width="40" height="38" as="geometry" />
        </mxCell>
        <mxCell id="4YCI477bfAeU8ZQTgAqc-162" value="Client system (Web browser or mobile app) when connects to the Web application (www.mysite.com) using the URL, the router first refers the URL and corresponding IP address map to find the IP address of the site. If entry for the URL is not present in the map, then request is forwarded to immediate DNS (Domain Name Server) to find the required IP address. Once the IP address is resolved the request is made to the Web Application Server." style="text;html=1;align=left;verticalAlign=top;spacingTop=-4;fontSize=14;labelBackgroundColor=none;whiteSpace=wrap;rounded=0;" vertex="1" parent="1">
          <mxGeometry x="978" y="1135" width="449" height="118" as="geometry" />
        </mxCell>
        <mxCell id="4YCI477bfAeU8ZQTgAqc-163" value="&lt;span&gt;Lorem ipsum dolor sit amet, consectetur adipiscing elit, sed do eiusmod tempor incididunt ut labore et dolore magna aliqua. Ut enim ad minim veniam, quis nostrud exercitation ullamco laboris nisi ut aliquip ex ea commodo consequat. Duis aute irure dolor in reprehenderit in voluptate velit esse cillum dolore eu fugiat nulla pariatur. Excepteur sint occaecat cupidatat non proident, sunt in culpa qui officia deserunt mollit anim id est laborum.&lt;/span&gt;&lt;br&gt;" style="text;html=1;align=left;verticalAlign=top;spacingTop=-4;fontSize=14;labelBackgroundColor=none;whiteSpace=wrap;rounded=0;" vertex="1" parent="1">
          <mxGeometry x="977" y="1258" width="450" height="115" as="geometry" />
        </mxCell>
        <mxCell id="4YCI477bfAeU8ZQTgAqc-164" value="&lt;span&gt;Lorem ipsum dolor sit amet, consectetur adipiscing elit, sed do eiusmod tempor incididunt ut labore et dolore magna aliqua. Ut enim ad minim veniam, quis nostrud exercitation ullamco laboris nisi ut aliquip ex ea commodo consequat. Duis aute irure dolor in reprehenderit in voluptate velit esse cillum dolore eu fugiat nulla pariatur. Excepteur sint occaecat cupidatat non proident, sunt in culpa qui officia deserunt mollit anim id est laborum.&lt;/span&gt;&lt;br&gt;" style="text;html=1;align=left;verticalAlign=top;spacingTop=-4;fontSize=14;labelBackgroundColor=none;whiteSpace=wrap;rounded=0;" vertex="1" parent="1">
          <mxGeometry x="977" y="1376" width="450" height="117" as="geometry" />
        </mxCell>
        <mxCell id="4YCI477bfAeU8ZQTgAqc-165" value="&lt;span&gt;Lorem ipsum dolor sit amet, consectetur adipiscing elit, sed do eiusmod tempor incididunt ut labore et dolore magna aliqua. Ut enim ad minim veniam, quis nostrud exercitation ullamco laboris nisi ut aliquip ex ea commodo consequat. Duis aute irure dolor in reprehenderit in voluptate velit esse cillum dolore eu fugiat nulla pariatur. Excepteur sint occaecat cupidatat non proident, sunt in culpa qui officia deserunt mollit anim id est laborum.&lt;/span&gt;&lt;br&gt;" style="text;html=1;align=left;verticalAlign=top;spacingTop=-4;fontSize=14;labelBackgroundColor=none;whiteSpace=wrap;rounded=0;" vertex="1" parent="1">
          <mxGeometry x="977" y="1492" width="450" height="121" as="geometry" />
        </mxCell>
        <mxCell id="4YCI477bfAeU8ZQTgAqc-166" value="&lt;span&gt;Lorem ipsum dolor sit amet, consectetur adipiscing elit, sed do eiusmod tempor incididunt ut labore et dolore magna aliqua. Ut enim ad minim veniam, quis nostrud exercitation ullamco laboris nisi ut aliquip ex ea commodo consequat. Duis aute irure dolor in reprehenderit in voluptate velit esse cillum dolore eu fugiat nulla pariatur. Excepteur sint occaecat cupidatat non proident, sunt in culpa qui officia deserunt mollit anim id est laborum.&lt;/span&gt;&lt;br&gt;" style="text;html=1;align=left;verticalAlign=top;spacingTop=-4;fontSize=14;labelBackgroundColor=none;whiteSpace=wrap;rounded=0;" vertex="1" parent="1">
          <mxGeometry x="978" y="1609" width="449" height="114" as="geometry" />
        </mxCell>
        <mxCell id="4YCI477bfAeU8ZQTgAqc-167" value="&lt;span&gt;Lorem ipsum dolor sit amet, consectetur adipiscing elit, sed do eiusmod tempor incididunt ut labore et dolore magna aliqua. Ut enim ad minim veniam, quis nostrud exercitation ullamco laboris nisi ut aliquip ex ea commodo consequat. Duis aute irure dolor in reprehenderit in voluptate velit esse cillum dolore eu fugiat nulla pariatur. Excepteur sint occaecat cupidatat non proident, sunt in culpa qui officia deserunt mollit anim id est laborum.&lt;/span&gt;&lt;br&gt;" style="text;html=1;align=left;verticalAlign=top;spacingTop=-4;fontSize=14;labelBackgroundColor=none;whiteSpace=wrap;rounded=0;" vertex="1" parent="1">
          <mxGeometry x="978" y="1725" width="450" height="118" as="geometry" />
        </mxCell>
        <mxCell id="4YCI477bfAeU8ZQTgAqc-168" value="&lt;span&gt;Lorem ipsum dolor sit amet, consectetur adipiscing elit, sed do eiusmod tempor incididunt ut labore et dolore magna aliqua. Ut enim ad minim veniam, quis nostrud exercitation ullamco laboris nisi ut aliquip ex ea commodo consequat. Duis aute irure dolor in reprehenderit in voluptate velit esse cillum dolore eu fugiat nulla pariatur. Excepteur sint occaecat cupidatat non proident, sunt in culpa qui officia deserunt mollit anim id est laborum.&lt;/span&gt;&lt;br&gt;" style="text;html=1;align=left;verticalAlign=top;spacingTop=-4;fontSize=14;labelBackgroundColor=none;whiteSpace=wrap;rounded=0;" vertex="1" parent="1">
          <mxGeometry x="978" y="1840" width="449" height="113" as="geometry" />
        </mxCell>
        <mxCell id="4YCI477bfAeU8ZQTgAqc-169" value="&lt;span&gt;Lorem ipsum dolor sit amet, consectetur adipiscing elit, sed do eiusmod tempor incididunt ut labore et dolore magna aliqua. Ut enim ad minim veniam, quis nostrud exercitation ullamco laboris nisi ut aliquip ex ea commodo consequat. Duis aute irure dolor in reprehenderit in voluptate velit esse cillum dolore eu fugiat nulla pariatur. Excepteur sint occaecat cupidatat non proident, sunt in culpa qui officia deserunt mollit anim id est laborum.&lt;/span&gt;&lt;br&gt;" style="text;html=1;align=left;verticalAlign=top;spacingTop=-4;fontSize=14;labelBackgroundColor=none;whiteSpace=wrap;rounded=0;" vertex="1" parent="1">
          <mxGeometry x="978" y="1959" width="449" height="124" as="geometry" />
        </mxCell>
        <mxCell id="4YCI477bfAeU8ZQTgAqc-170" value="&lt;span&gt;Lorem ipsum dolor sit amet, consectetur adipiscing elit, sed do eiusmod tempor incididunt ut labore et dolore magna aliqua. Ut enim ad minim veniam, quis nostrud exercitation ullamco laboris nisi ut aliquip ex ea commodo consequat. Duis aute irure dolor in reprehenderit in voluptate velit esse cillum dolore eu fugiat nulla pariatur. Excepteur sint occaecat cupidatat non proident, sunt in culpa qui officia deserunt mollit anim id est laborum.&lt;/span&gt;&lt;br&gt;" style="text;html=1;align=left;verticalAlign=top;spacingTop=-4;fontSize=14;labelBackgroundColor=none;whiteSpace=wrap;rounded=0;" vertex="1" parent="1">
          <mxGeometry x="978" y="2078" width="449" height="115" as="geometry" />
        </mxCell>
        <mxCell id="4YCI477bfAeU8ZQTgAqc-171" value="10" style="rounded=0;whiteSpace=wrap;html=1;fillColor=#007CBD;strokeColor=none;fontColor=#FFFFFF;fontStyle=1;fontSize=22;labelBackgroundColor=none;" vertex="1" parent="1">
          <mxGeometry x="926.5" y="2203" width="40" height="38" as="geometry" />
        </mxCell>
        <mxCell id="4YCI477bfAeU8ZQTgAqc-172" value="&lt;span&gt;Lorem ipsum dolor sit amet, consectetur adipiscing elit, sed do eiusmod tempor incididunt ut labore et dolore magna aliqua. Ut enim ad minim veniam, quis nostrud exercitation ullamco laboris nisi ut aliquip ex ea commodo consequat. Duis aute irure dolor in reprehenderit in voluptate velit esse cillum dolore eu fugiat nulla pariatur. Excepteur sint occaecat cupidatat non proident, sunt in culpa qui officia deserunt mollit anim id est laborum.&lt;/span&gt;&lt;br&gt;" style="text;html=1;align=left;verticalAlign=top;spacingTop=-4;fontSize=14;labelBackgroundColor=none;whiteSpace=wrap;rounded=0;" vertex="1" parent="1">
          <mxGeometry x="979" y="2203.5" width="449" height="115" as="geometry" />
        </mxCell>
        <mxCell id="4YCI477bfAeU8ZQTgAqc-173" value="11" style="rounded=0;whiteSpace=wrap;html=1;fillColor=#007CBD;strokeColor=none;fontColor=#FFFFFF;fontStyle=1;fontSize=22;labelBackgroundColor=none;" vertex="1" parent="1">
          <mxGeometry x="925" y="2323" width="40" height="38" as="geometry" />
        </mxCell>
        <mxCell id="4YCI477bfAeU8ZQTgAqc-174" value="&lt;span&gt;Lorem ipsum dolor sit amet, consectetur adipiscing elit, sed do eiusmod tempor incididunt ut labore et dolore magna aliqua. Ut enim ad minim veniam, quis nostrud exercitation ullamco laboris nisi ut aliquip ex ea commodo consequat. Duis aute irure dolor in reprehenderit in voluptate velit esse cillum dolore eu fugiat nulla pariatur. Excepteur sint occaecat cupidatat non proident, sunt in culpa qui officia deserunt mollit anim id est laborum.&lt;/span&gt;&lt;br&gt;" style="text;html=1;align=left;verticalAlign=top;spacingTop=-4;fontSize=14;labelBackgroundColor=none;whiteSpace=wrap;rounded=0;" vertex="1" parent="1">
          <mxGeometry x="977.5" y="2323.5" width="449" height="115" as="geometry" />
        </mxCell>
        <mxCell id="4YCI477bfAeU8ZQTgAqc-175" value="" style="rounded=1;whiteSpace=wrap;html=1;" vertex="1" parent="1">
          <mxGeometry x="1294" y="572" width="970" height="434" as="geometry" />
        </mxCell>
        <mxCell id="4YCI477bfAeU8ZQTgAqc-176" value="" style="rounded=1;whiteSpace=wrap;html=1;" vertex="1" parent="1">
          <mxGeometry x="1605" y="857" width="279" height="125" as="geometry" />
        </mxCell>
        <mxCell id="4YCI477bfAeU8ZQTgAqc-177" value="" style="rounded=1;whiteSpace=wrap;html=1;" vertex="1" parent="1">
          <mxGeometry x="1321.5" y="859.5" width="272.5" height="122.5" as="geometry" />
        </mxCell>
        <mxCell id="4YCI477bfAeU8ZQTgAqc-178" value="" style="rounded=1;whiteSpace=wrap;html=1;" vertex="1" parent="1">
          <mxGeometry x="1334" y="887" width="250" height="85" as="geometry" />
        </mxCell>
        <mxCell id="4YCI477bfAeU8ZQTgAqc-179" value="" style="rounded=1;whiteSpace=wrap;html=1;" vertex="1" parent="1">
          <mxGeometry x="1905" y="858" width="148" height="95" as="geometry" />
        </mxCell>
        <mxCell id="4YCI477bfAeU8ZQTgAqc-180" value="" style="rounded=1;whiteSpace=wrap;html=1;" vertex="1" parent="1">
          <mxGeometry x="1443" y="601" width="301" height="131" as="geometry" />
        </mxCell>
        <mxCell id="4YCI477bfAeU8ZQTgAqc-181" value="3" style="rounded=0;whiteSpace=wrap;html=1;fillColor=#007CBD;strokeColor=none;fontColor=#FFFFFF;fontStyle=1;fontSize=22;" vertex="1" parent="1">
          <mxGeometry x="1321.5" y="606" width="40" height="38" as="geometry" />
        </mxCell>
        <mxCell id="4YCI477bfAeU8ZQTgAqc-182" value="" style="sketch=0;aspect=fixed;pointerEvents=1;shadow=0;dashed=0;html=1;strokeColor=none;labelPosition=center;verticalLabelPosition=bottom;verticalAlign=top;align=center;fillColor=#00188D;shape=mxgraph.mscae.enterprise.application_server" vertex="1" parent="1">
          <mxGeometry x="1464" y="610.97" width="77" height="89.53" as="geometry" />
        </mxCell>
        <mxCell id="4YCI477bfAeU8ZQTgAqc-183" value="Data Center #2" style="text;html=1;resizable=0;points=[];autosize=1;align=left;verticalAlign=top;spacingTop=-4;fontSize=16;fontStyle=1;rounded=0;" vertex="1" parent="1">
          <mxGeometry x="1339" y="576" width="140" height="30" as="geometry" />
        </mxCell>
        <mxCell id="4YCI477bfAeU8ZQTgAqc-184" value="" style="image;aspect=fixed;perimeter=ellipsePerimeter;html=1;align=center;shadow=0;dashed=0;spacingTop=3;image=img/lib/active_directory/databases.svg;" vertex="1" parent="1">
          <mxGeometry x="1435" y="890.5" width="50" height="49" as="geometry" />
        </mxCell>
        <mxCell id="4YCI477bfAeU8ZQTgAqc-185" value="" style="image;aspect=fixed;perimeter=ellipsePerimeter;html=1;align=center;shadow=0;dashed=0;spacingTop=3;image=img/lib/active_directory/databases.svg;" vertex="1" parent="1">
          <mxGeometry x="1519" y="892.5" width="50" height="49" as="geometry" />
        </mxCell>
        <mxCell id="4YCI477bfAeU8ZQTgAqc-186" value="" style="image;aspect=fixed;perimeter=ellipsePerimeter;html=1;align=center;shadow=0;dashed=0;spacingTop=3;image=img/lib/active_directory/databases.svg;" vertex="1" parent="1">
          <mxGeometry x="1347" y="891.5" width="50" height="49" as="geometry" />
        </mxCell>
        <mxCell id="4YCI477bfAeU8ZQTgAqc-187" value="Master DB" style="text;html=1;strokeColor=none;fillColor=none;align=center;verticalAlign=middle;whiteSpace=wrap;rounded=0;" vertex="1" parent="1">
          <mxGeometry x="1425" y="937" width="69" height="26" as="geometry" />
        </mxCell>
        <mxCell id="4YCI477bfAeU8ZQTgAqc-188" value="Slave DB" style="text;html=1;strokeColor=none;fillColor=none;align=center;verticalAlign=middle;whiteSpace=wrap;rounded=0;" vertex="1" parent="1">
          <mxGeometry x="1338" y="937" width="69" height="26" as="geometry" />
        </mxCell>
        <mxCell id="4YCI477bfAeU8ZQTgAqc-189" value="Slave DB" style="text;html=1;strokeColor=none;fillColor=none;align=center;verticalAlign=middle;whiteSpace=wrap;rounded=0;" vertex="1" parent="1">
          <mxGeometry x="1511" y="938" width="69" height="26" as="geometry" />
        </mxCell>
        <mxCell id="4YCI477bfAeU8ZQTgAqc-190" value="Replicate" style="html=1;verticalAlign=bottom;startArrow=block;startFill=1;endArrow=block;startSize=8;edgeStyle=elbowEdgeStyle;elbow=vertical;curved=0;rounded=0;" edge="1" parent="1">
          <mxGeometry width="60" relative="1" as="geometry">
            <mxPoint x="1392" y="919" as="sourcePoint" />
            <mxPoint x="1445" y="919" as="targetPoint" />
          </mxGeometry>
        </mxCell>
        <mxCell id="4YCI477bfAeU8ZQTgAqc-191" value="Replicate" style="html=1;verticalAlign=bottom;startArrow=block;startFill=1;endArrow=block;startSize=8;edgeStyle=elbowEdgeStyle;elbow=vertical;curved=0;rounded=0;" edge="1" parent="1">
          <mxGeometry width="60" relative="1" as="geometry">
            <mxPoint x="1475" y="918" as="sourcePoint" />
            <mxPoint x="1528" y="918" as="targetPoint" />
          </mxGeometry>
        </mxCell>
        <mxCell id="4YCI477bfAeU8ZQTgAqc-192" value="" style="sketch=0;aspect=fixed;pointerEvents=1;shadow=0;dashed=0;html=1;strokeColor=none;labelPosition=center;verticalLabelPosition=bottom;verticalAlign=top;align=center;fillColor=#00188D;shape=mxgraph.mscae.enterprise.application_server" vertex="1" parent="1">
          <mxGeometry x="1554" y="610.97" width="77" height="89.53" as="geometry" />
        </mxCell>
        <mxCell id="4YCI477bfAeU8ZQTgAqc-193" value="" style="sketch=0;aspect=fixed;pointerEvents=1;shadow=0;dashed=0;html=1;strokeColor=none;labelPosition=center;verticalLabelPosition=bottom;verticalAlign=top;align=center;fillColor=#00188D;shape=mxgraph.mscae.enterprise.application_server" vertex="1" parent="1">
          <mxGeometry x="1644" y="609.97" width="77" height="89.53" as="geometry" />
        </mxCell>
        <mxCell id="4YCI477bfAeU8ZQTgAqc-194" value="" style="rounded=1;whiteSpace=wrap;html=1;" vertex="1" parent="1">
          <mxGeometry x="1624.5" y="882" width="232.5" height="84" as="geometry" />
        </mxCell>
        <mxCell id="4YCI477bfAeU8ZQTgAqc-195" value="Master DB" style="text;html=1;strokeColor=none;fillColor=none;align=center;verticalAlign=middle;whiteSpace=wrap;rounded=0;" vertex="1" parent="1">
          <mxGeometry x="1707" y="942" width="69" height="26" as="geometry" />
        </mxCell>
        <mxCell id="4YCI477bfAeU8ZQTgAqc-196" value="Slave DB" style="text;html=1;strokeColor=none;fillColor=none;align=center;verticalAlign=middle;whiteSpace=wrap;rounded=0;" vertex="1" parent="1">
          <mxGeometry x="1620" y="942" width="69" height="26" as="geometry" />
        </mxCell>
        <mxCell id="4YCI477bfAeU8ZQTgAqc-197" value="Slave DB" style="text;html=1;strokeColor=none;fillColor=none;align=center;verticalAlign=middle;whiteSpace=wrap;rounded=0;" vertex="1" parent="1">
          <mxGeometry x="1793" y="943" width="69" height="26" as="geometry" />
        </mxCell>
        <mxCell id="4YCI477bfAeU8ZQTgAqc-198" value="" style="image;aspect=fixed;perimeter=ellipsePerimeter;html=1;align=center;shadow=0;dashed=0;spacingTop=3;image=img/lib/active_directory/databases.svg;" vertex="1" parent="1">
          <mxGeometry x="1715" y="893.5" width="50" height="49" as="geometry" />
        </mxCell>
        <mxCell id="4YCI477bfAeU8ZQTgAqc-199" value="" style="image;aspect=fixed;perimeter=ellipsePerimeter;html=1;align=center;shadow=0;dashed=0;spacingTop=3;image=img/lib/active_directory/databases.svg;" vertex="1" parent="1">
          <mxGeometry x="1799" y="895.5" width="50" height="49" as="geometry" />
        </mxCell>
        <mxCell id="4YCI477bfAeU8ZQTgAqc-200" value="" style="image;aspect=fixed;perimeter=ellipsePerimeter;html=1;align=center;shadow=0;dashed=0;spacingTop=3;image=img/lib/active_directory/databases.svg;" vertex="1" parent="1">
          <mxGeometry x="1627" y="894.5" width="50" height="49" as="geometry" />
        </mxCell>
        <mxCell id="4YCI477bfAeU8ZQTgAqc-201" value="Replicate" style="html=1;verticalAlign=bottom;startArrow=block;startFill=1;endArrow=block;startSize=8;edgeStyle=elbowEdgeStyle;elbow=vertical;curved=0;rounded=0;" edge="1" parent="1">
          <mxGeometry width="60" relative="1" as="geometry">
            <mxPoint x="1671" y="921" as="sourcePoint" />
            <mxPoint x="1724" y="921" as="targetPoint" />
          </mxGeometry>
        </mxCell>
        <mxCell id="4YCI477bfAeU8ZQTgAqc-202" value="Replicate" style="html=1;verticalAlign=bottom;startArrow=block;startFill=1;endArrow=block;startSize=8;edgeStyle=elbowEdgeStyle;elbow=vertical;curved=0;rounded=0;" edge="1" parent="1">
          <mxGeometry width="60" relative="1" as="geometry">
            <mxPoint x="1754" y="920" as="sourcePoint" />
            <mxPoint x="1807" y="920" as="targetPoint" />
          </mxGeometry>
        </mxCell>
        <mxCell id="4YCI477bfAeU8ZQTgAqc-203" value="user id % 2" style="rhombus;whiteSpace=wrap;html=1;" vertex="1" parent="1">
          <mxGeometry x="1551" y="749" width="80" height="80" as="geometry" />
        </mxCell>
        <mxCell id="4YCI477bfAeU8ZQTgAqc-204" value="" style="edgeStyle=segmentEdgeStyle;endArrow=classic;html=1;curved=0;rounded=0;endSize=8;startSize=8;exitX=0;exitY=0.5;exitDx=0;exitDy=0;entryX=0.5;entryY=0;entryDx=0;entryDy=0;" edge="1" parent="1" source="4YCI477bfAeU8ZQTgAqc-203" target="4YCI477bfAeU8ZQTgAqc-177">
          <mxGeometry width="50" height="50" relative="1" as="geometry">
            <mxPoint x="1533" y="804" as="sourcePoint" />
            <mxPoint x="1533" y="619" as="targetPoint" />
          </mxGeometry>
        </mxCell>
        <mxCell id="4YCI477bfAeU8ZQTgAqc-205" value="" style="edgeStyle=elbowEdgeStyle;elbow=vertical;endArrow=classic;html=1;curved=0;rounded=0;endSize=8;startSize=8;exitX=1;exitY=0.5;exitDx=0;exitDy=0;entryX=0.53;entryY=0.006;entryDx=0;entryDy=0;entryPerimeter=0;" edge="1" parent="1" source="4YCI477bfAeU8ZQTgAqc-203" target="4YCI477bfAeU8ZQTgAqc-176">
          <mxGeometry width="50" height="50" relative="1" as="geometry">
            <mxPoint x="1651" y="810" as="sourcePoint" />
            <mxPoint x="1744" y="852" as="targetPoint" />
            <Array as="points">
              <mxPoint x="1684" y="790" />
            </Array>
          </mxGeometry>
        </mxCell>
        <mxCell id="4YCI477bfAeU8ZQTgAqc-206" value="" style="endArrow=classic;html=1;rounded=0;exitX=0.5;exitY=1;exitDx=0;exitDy=0;" edge="1" parent="1" source="4YCI477bfAeU8ZQTgAqc-180" target="4YCI477bfAeU8ZQTgAqc-203">
          <mxGeometry width="50" height="50" relative="1" as="geometry">
            <mxPoint x="1524" y="822" as="sourcePoint" />
            <mxPoint x="1574" y="772" as="targetPoint" />
          </mxGeometry>
        </mxCell>
        <mxCell id="4YCI477bfAeU8ZQTgAqc-207" value="&lt;b&gt;Shard#1&lt;/b&gt;" style="text;html=1;strokeColor=none;fillColor=none;align=center;verticalAlign=middle;whiteSpace=wrap;rounded=0;" vertex="1" parent="1">
          <mxGeometry x="1322" y="859" width="60" height="30" as="geometry" />
        </mxCell>
        <mxCell id="4YCI477bfAeU8ZQTgAqc-208" value="&lt;b&gt;Shard#2&lt;/b&gt;" style="text;html=1;strokeColor=none;fillColor=none;align=center;verticalAlign=middle;whiteSpace=wrap;rounded=0;" vertex="1" parent="1">
          <mxGeometry x="1605" y="852" width="60" height="30" as="geometry" />
        </mxCell>
        <mxCell id="4YCI477bfAeU8ZQTgAqc-209" value="4" style="rounded=0;whiteSpace=wrap;html=1;fillColor=#007CBD;strokeColor=none;fontColor=#FFFFFF;fontStyle=1;fontSize=22;" vertex="1" parent="1">
          <mxGeometry x="1695.5" y="608" width="40" height="38" as="geometry" />
        </mxCell>
        <mxCell id="4YCI477bfAeU8ZQTgAqc-210" value="5" style="rounded=0;whiteSpace=wrap;html=1;fillColor=#007CBD;strokeColor=none;fontColor=#FFFFFF;fontStyle=1;fontSize=22;" vertex="1" parent="1">
          <mxGeometry x="1635.5" y="749" width="40" height="38" as="geometry" />
        </mxCell>
        <mxCell id="4YCI477bfAeU8ZQTgAqc-211" value="" style="outlineConnect=0;dashed=0;verticalLabelPosition=bottom;verticalAlign=top;align=center;html=1;shape=mxgraph.aws3.cache_node;fillColor=#2E73B8;gradientColor=none;" vertex="1" parent="1">
          <mxGeometry x="1916" y="863" width="44" height="50" as="geometry" />
        </mxCell>
        <mxCell id="4YCI477bfAeU8ZQTgAqc-212" value="" style="outlineConnect=0;dashed=0;verticalLabelPosition=bottom;verticalAlign=top;align=center;html=1;shape=mxgraph.aws3.cache_node;fillColor=#2E73B8;gradientColor=none;" vertex="1" parent="1">
          <mxGeometry x="1948" y="880" width="44" height="50" as="geometry" />
        </mxCell>
        <mxCell id="4YCI477bfAeU8ZQTgAqc-213" value="" style="outlineConnect=0;dashed=0;verticalLabelPosition=bottom;verticalAlign=top;align=center;html=1;shape=mxgraph.aws3.cache_node;fillColor=#2E73B8;gradientColor=none;" vertex="1" parent="1">
          <mxGeometry x="1974" y="901" width="44" height="50" as="geometry" />
        </mxCell>
        <mxCell id="4YCI477bfAeU8ZQTgAqc-214" value="6" style="rounded=0;whiteSpace=wrap;html=1;fillColor=#007CBD;strokeColor=none;fontColor=#FFFFFF;fontStyle=1;fontSize=22;" vertex="1" parent="1">
          <mxGeometry x="1464.5" y="843" width="40" height="38" as="geometry" />
        </mxCell>
        <mxCell id="4YCI477bfAeU8ZQTgAqc-215" value="7" style="rounded=0;whiteSpace=wrap;html=1;fillColor=#007CBD;strokeColor=none;fontColor=#FFFFFF;fontStyle=1;fontSize=22;" vertex="1" parent="1">
          <mxGeometry x="2003.5" y="862" width="40" height="38" as="geometry" />
        </mxCell>
        <mxCell id="4YCI477bfAeU8ZQTgAqc-216" value="" style="edgeStyle=elbowEdgeStyle;elbow=vertical;endArrow=classic;html=1;curved=0;rounded=0;endSize=8;startSize=8;entryX=0.5;entryY=0;entryDx=0;entryDy=0;exitX=1;exitY=0.75;exitDx=0;exitDy=0;" edge="1" parent="1" source="4YCI477bfAeU8ZQTgAqc-180" target="4YCI477bfAeU8ZQTgAqc-179">
          <mxGeometry width="50" height="50" relative="1" as="geometry">
            <mxPoint x="1744" y="656" as="sourcePoint" />
            <mxPoint x="1842" y="726" as="targetPoint" />
            <Array as="points">
              <mxPoint x="1864" y="699" />
            </Array>
          </mxGeometry>
        </mxCell>
        <mxCell id="4YCI477bfAeU8ZQTgAqc-217" value="Web/Application Server" style="text;html=1;strokeColor=none;fillColor=none;align=center;verticalAlign=middle;whiteSpace=wrap;rounded=0;" vertex="1" parent="1">
          <mxGeometry x="1529" y="703" width="130" height="30" as="geometry" />
        </mxCell>
        <mxCell id="4YCI477bfAeU8ZQTgAqc-218" value="" style="rounded=1;whiteSpace=wrap;html=1;" vertex="1" parent="1">
          <mxGeometry x="2078" y="853" width="120" height="110" as="geometry" />
        </mxCell>
        <mxCell id="4YCI477bfAeU8ZQTgAqc-219" value="" style="sketch=0;aspect=fixed;pointerEvents=1;shadow=0;dashed=0;html=1;strokeColor=none;labelPosition=center;verticalLabelPosition=bottom;verticalAlign=top;align=center;fillColor=#00188D;shape=mxgraph.mscae.enterprise.application_server" vertex="1" parent="1">
          <mxGeometry x="2109" y="855.97" width="77" height="89.53" as="geometry" />
        </mxCell>
        <mxCell id="4YCI477bfAeU8ZQTgAqc-220" value="Workers" style="text;html=1;strokeColor=none;fillColor=none;align=center;verticalAlign=middle;whiteSpace=wrap;rounded=0;" vertex="1" parent="1">
          <mxGeometry x="2094" y="937.5" width="130" height="30" as="geometry" />
        </mxCell>
        <mxCell id="4YCI477bfAeU8ZQTgAqc-221" value="" style="sketch=0;aspect=fixed;pointerEvents=1;shadow=0;dashed=0;html=1;strokeColor=none;labelPosition=center;verticalLabelPosition=bottom;verticalAlign=top;align=center;fillColor=#00188D;shape=mxgraph.azure.queue_generic" vertex="1" parent="1">
          <mxGeometry x="1898" y="615" width="126.67" height="38" as="geometry" />
        </mxCell>
        <mxCell id="4YCI477bfAeU8ZQTgAqc-222" value="" style="edgeStyle=segmentEdgeStyle;endArrow=classic;html=1;curved=0;rounded=0;endSize=8;startSize=8;exitX=1;exitY=0.51;exitDx=0;exitDy=0;exitPerimeter=0;entryX=0.445;entryY=-0.015;entryDx=0;entryDy=0;entryPerimeter=0;" edge="1" parent="1" source="4YCI477bfAeU8ZQTgAqc-221" target="4YCI477bfAeU8ZQTgAqc-218">
          <mxGeometry width="50" height="50" relative="1" as="geometry">
            <mxPoint x="2084" y="785" as="sourcePoint" />
            <mxPoint x="2148" y="852" as="targetPoint" />
          </mxGeometry>
        </mxCell>
        <mxCell id="4YCI477bfAeU8ZQTgAqc-223" value="" style="endArrow=classic;html=1;rounded=0;entryX=0;entryY=0.5;entryDx=0;entryDy=0;entryPerimeter=0;exitX=1;exitY=0.25;exitDx=0;exitDy=0;" edge="1" parent="1">
          <mxGeometry relative="1" as="geometry">
            <mxPoint x="1744" y="633.75" as="sourcePoint" />
            <mxPoint x="1898" y="634" as="targetPoint" />
          </mxGeometry>
        </mxCell>
        <mxCell id="4YCI477bfAeU8ZQTgAqc-224" value="Publish" style="edgeLabel;resizable=0;html=1;align=center;verticalAlign=middle;" connectable="0" vertex="1" parent="4YCI477bfAeU8ZQTgAqc-223">
          <mxGeometry relative="1" as="geometry" />
        </mxCell>
        <mxCell id="4YCI477bfAeU8ZQTgAqc-225" value="Task Request" style="text;html=1;strokeColor=none;fillColor=none;align=center;verticalAlign=middle;whiteSpace=wrap;rounded=0;" vertex="1" parent="1">
          <mxGeometry x="2131" y="747" width="60" height="30" as="geometry" />
        </mxCell>
        <mxCell id="4YCI477bfAeU8ZQTgAqc-226" value="" style="rounded=1;whiteSpace=wrap;html=1;" vertex="1" parent="1">
          <mxGeometry x="1628" y="1042" width="320" height="150" as="geometry" />
        </mxCell>
        <mxCell id="4YCI477bfAeU8ZQTgAqc-227" value="" style="rounded=1;whiteSpace=wrap;html=1;" vertex="1" parent="1">
          <mxGeometry x="1676" y="1052" width="120" height="60" as="geometry" />
        </mxCell>
        <mxCell id="4YCI477bfAeU8ZQTgAqc-228" value="" style="rounded=1;whiteSpace=wrap;html=1;" vertex="1" parent="1">
          <mxGeometry x="1813" y="1052" width="120" height="60" as="geometry" />
        </mxCell>
        <mxCell id="4YCI477bfAeU8ZQTgAqc-229" value="" style="rounded=1;whiteSpace=wrap;html=1;" vertex="1" parent="1">
          <mxGeometry x="1678" y="1126.5" width="120" height="60" as="geometry" />
        </mxCell>
        <mxCell id="4YCI477bfAeU8ZQTgAqc-230" value="" style="rounded=1;whiteSpace=wrap;html=1;" vertex="1" parent="1">
          <mxGeometry x="1817" y="1126.5" width="120" height="60" as="geometry" />
        </mxCell>
        <mxCell id="4YCI477bfAeU8ZQTgAqc-231" value="Logging" style="text;html=1;strokeColor=none;fillColor=none;align=center;verticalAlign=middle;whiteSpace=wrap;rounded=0;" vertex="1" parent="1">
          <mxGeometry x="1698" y="1062" width="60" height="30" as="geometry" />
        </mxCell>
        <mxCell id="4YCI477bfAeU8ZQTgAqc-232" value="Metrics" style="text;html=1;strokeColor=none;fillColor=none;align=center;verticalAlign=middle;whiteSpace=wrap;rounded=0;" vertex="1" parent="1">
          <mxGeometry x="1847" y="1067" width="60" height="30" as="geometry" />
        </mxCell>
        <mxCell id="4YCI477bfAeU8ZQTgAqc-233" value="Monitoring" style="text;html=1;strokeColor=none;fillColor=none;align=center;verticalAlign=middle;whiteSpace=wrap;rounded=0;" vertex="1" parent="1">
          <mxGeometry x="1704" y="1142" width="60" height="30" as="geometry" />
        </mxCell>
        <mxCell id="4YCI477bfAeU8ZQTgAqc-234" value="Automation" style="text;html=1;strokeColor=none;fillColor=none;align=center;verticalAlign=middle;whiteSpace=wrap;rounded=0;" vertex="1" parent="1">
          <mxGeometry x="1844" y="1142" width="60" height="30" as="geometry" />
        </mxCell>
        <mxCell id="4YCI477bfAeU8ZQTgAqc-235" value="" style="rounded=1;whiteSpace=wrap;html=1;" vertex="1" parent="1">
          <mxGeometry x="1676" y="1052" width="120" height="60" as="geometry" />
        </mxCell>
        <mxCell id="4YCI477bfAeU8ZQTgAqc-236" value="" style="rounded=1;whiteSpace=wrap;html=1;" vertex="1" parent="1">
          <mxGeometry x="1813" y="1052" width="120" height="60" as="geometry" />
        </mxCell>
        <mxCell id="4YCI477bfAeU8ZQTgAqc-237" value="Logging" style="text;html=1;strokeColor=none;fillColor=none;align=center;verticalAlign=middle;whiteSpace=wrap;rounded=0;" vertex="1" parent="1">
          <mxGeometry x="1698" y="1062" width="60" height="30" as="geometry" />
        </mxCell>
        <mxCell id="4YCI477bfAeU8ZQTgAqc-238" value="Metrics" style="text;html=1;strokeColor=none;fillColor=none;align=center;verticalAlign=middle;whiteSpace=wrap;rounded=0;" vertex="1" parent="1">
          <mxGeometry x="1847" y="1067" width="60" height="30" as="geometry" />
        </mxCell>
        <mxCell id="4YCI477bfAeU8ZQTgAqc-239" value="Monitoring" style="text;html=1;strokeColor=none;fillColor=none;align=center;verticalAlign=middle;whiteSpace=wrap;rounded=0;" vertex="1" parent="1">
          <mxGeometry x="1704" y="1142" width="60" height="30" as="geometry" />
        </mxCell>
        <mxCell id="4YCI477bfAeU8ZQTgAqc-240" value="Automation" style="text;html=1;strokeColor=none;fillColor=none;align=center;verticalAlign=middle;whiteSpace=wrap;rounded=0;" vertex="1" parent="1">
          <mxGeometry x="1844" y="1142" width="60" height="30" as="geometry" />
        </mxCell>
        <mxCell id="4YCI477bfAeU8ZQTgAqc-241" value="&lt;b&gt;Tools&lt;/b&gt;" style="text;html=1;strokeColor=none;fillColor=none;align=center;verticalAlign=middle;whiteSpace=wrap;rounded=0;" vertex="1" parent="1">
          <mxGeometry x="1617" y="1051" width="60" height="30" as="geometry" />
        </mxCell>
        <mxCell id="4YCI477bfAeU8ZQTgAqc-242" value="" style="endArrow=classic;html=1;rounded=0;exitX=0.5;exitY=0;exitDx=0;exitDy=0;entryX=0.509;entryY=1;entryDx=0;entryDy=0;entryPerimeter=0;" edge="1" parent="1" source="4YCI477bfAeU8ZQTgAqc-226" target="4YCI477bfAeU8ZQTgAqc-175">
          <mxGeometry width="50" height="50" relative="1" as="geometry">
            <mxPoint x="1664" y="982" as="sourcePoint" />
            <mxPoint x="1714" y="932" as="targetPoint" />
          </mxGeometry>
        </mxCell>
        <mxCell id="4YCI477bfAeU8ZQTgAqc-243" value="9" style="rounded=0;whiteSpace=wrap;html=1;fillColor=#007CBD;strokeColor=none;fontColor=#FFFFFF;fontStyle=1;fontSize=22;" vertex="1" parent="1">
          <mxGeometry x="2155.5" y="862" width="40" height="38" as="geometry" />
        </mxCell>
        <mxCell id="4YCI477bfAeU8ZQTgAqc-244" value="10" style="rounded=0;whiteSpace=wrap;html=1;fillColor=#007CBD;strokeColor=none;fontColor=#FFFFFF;fontStyle=1;fontSize=22;" vertex="1" parent="1">
          <mxGeometry x="1632.5" y="1090" width="40" height="38" as="geometry" />
        </mxCell>
        <mxCell id="4YCI477bfAeU8ZQTgAqc-245" value="8" style="rounded=0;whiteSpace=wrap;html=1;fillColor=#007CBD;strokeColor=none;fontColor=#FFFFFF;fontStyle=1;fontSize=22;" vertex="1" parent="1">
          <mxGeometry x="2028.5" y="594" width="40" height="38" as="geometry" />
        </mxCell>
        <mxCell id="4YCI477bfAeU8ZQTgAqc-246" value="" style="endArrow=classic;html=1;rounded=0;exitX=0.5;exitY=1;exitDx=0;exitDy=0;exitPerimeter=0;entryX=0.627;entryY=-0.002;entryDx=0;entryDy=0;entryPerimeter=0;" edge="1" parent="1" source="4YCI477bfAeU8ZQTgAqc-3" target="4YCI477bfAeU8ZQTgAqc-175">
          <mxGeometry width="50" height="50" relative="1" as="geometry">
            <mxPoint x="1310" y="380" as="sourcePoint" />
            <mxPoint x="1900" y="430" as="targetPoint" />
          </mxGeometry>
        </mxCell>
        <mxCell id="4YCI477bfAeU8ZQTgAqc-247" value="" style="endArrow=classic;html=1;rounded=0;exitX=0.5;exitY=1;exitDx=0;exitDy=0;exitPerimeter=0;entryX=0.491;entryY=-0.001;entryDx=0;entryDy=0;entryPerimeter=0;" edge="1" parent="1" source="4YCI477bfAeU8ZQTgAqc-3" target="4YCI477bfAeU8ZQTgAqc-33">
          <mxGeometry width="50" height="50" relative="1" as="geometry">
            <mxPoint x="1172" y="402" as="sourcePoint" />
            <mxPoint x="1912" y="446" as="targetPoint" />
          </mxGeometry>
        </mxCell>
      </root>
    </mxGraphModel>
  </diagram>
</mxfile>
